<svg xmlns="http://www.w3.org/2000/svg" xmlns:xlink="http://www.w3.org/1999/xlink" xmlns:lucid="lucid" width="1156" height="1176"><g transform="translate(-328 -87)" lucid:page-tab-id=".aJuUp0bYCu0"><path d="M0 0h1500v1500H0z" fill="#f2f3f5"/><path d="M740 206a6 6 0 0 1 6-6h362a6 6 0 0 1 6 6v192a6 6 0 0 1-6 6H746a6 6 0 0 1-6-6z" stroke="#000" stroke-width="5" fill="#fff"/><path d="M740 242.9h374m-374 96.64h374" stroke="#000" stroke-width="5" fill="none"/><use xlink:href="#a" transform="matrix(1,0,0,1,748,208) translate(134.84396701388889 21.58376736111111)"/><use xlink:href="#b" transform="matrix(1,0,0,1,752,250.88802083333334) translate(0 32.450954861111114)"/><use xlink:href="#c" transform="matrix(1,0,0,1,752,250.88802083333334) translate(20.95269097222222 32.450954861111114)"/><use xlink:href="#b" transform="matrix(1,0,0,1,752,250.88802083333334) translate(0 64.71657986111111)"/><use xlink:href="#d" transform="matrix(1,0,0,1,752,250.88802083333334) translate(20.95269097222222 64.71657986111111)"/><use xlink:href="#b" transform="matrix(1,0,0,1,752,347.5416666666667) translate(0 32.583767361111114)"/><use xlink:href="#e" transform="matrix(1,0,0,1,752,347.5416666666667) translate(20.95269097222222 32.583767361111114)"/><path d="M1020 586a6 6 0 0 1 6-6h362a6 6 0 0 1 6 6v160a6 6 0 0 1-6 6h-362a6 6 0 0 1-6-6z" stroke="#000" stroke-width="5" fill="#fff"/><path d="M1020 622.9h374m-374 64.38h374" stroke="#000" stroke-width="5" fill="none"/><use xlink:href="#f" transform="matrix(1,0,0,1,1028,588) translate(125.59917534722223 21.58376736111111)"/><use xlink:href="#b" transform="matrix(1,0,0,1,1032,630.8880208333334) translate(0 32.583767361111114)"/><use xlink:href="#g" transform="matrix(1,0,0,1,1032,630.8880208333334) translate(20.95269097222222 32.583767361111114)"/><use xlink:href="#b" transform="matrix(1,0,0,1,1032,695.2760416666667) translate(0 32.583767361111114)"/><use xlink:href="#e" transform="matrix(1,0,0,1,1032,695.2760416666667) translate(20.95269097222222 32.583767361111114)"/><path d="M1138.3 576.7l-121.16-157.53" stroke="#3a414a" stroke-width="2" fill="none"/><path d="M1140.15 577.5h-2.46l-.17-.22 1.54-1.2z" stroke="#3a414a" stroke-width=".05" fill="#3a414a"/><path d="M1008.6 408.08l13.87 5.73-11.9 9.15z" stroke="#3a414a" stroke-width="2" fill="#fff"/><path d="M420 586a6 6 0 0 1 6-6h362a6 6 0 0 1 6 6v160a6 6 0 0 1-6 6H426a6 6 0 0 1-6-6z" stroke="#000" stroke-width="5" fill="#fff"/><path d="M420 622.9h374m-374 64.38h374" stroke="#000" stroke-width="5" fill="none"/><use xlink:href="#h" transform="matrix(1,0,0,1,428,588) translate(121.57899305555556 21.58376736111111)"/><use xlink:href="#b" transform="matrix(1,0,0,1,432,630.8880208333334) translate(0 32.583767361111114)"/><use xlink:href="#i" transform="matrix(1,0,0,1,432,630.8880208333334) translate(20.95269097222222 32.583767361111114)"/><use xlink:href="#b" transform="matrix(1,0,0,1,432,695.2760416666667) translate(0 32.583767361111114)"/><use xlink:href="#e" transform="matrix(1,0,0,1,432,695.2760416666667) translate(20.95269097222222 32.583767361111114)"/><path d="M685.46 576.75L824.58 418.5" stroke="#3a414a" stroke-width="2" fill="none"/><path d="M686.2 577.37l-.1.13h-2.6l1.25-1.4z" stroke="#3a414a" stroke-width=".05" fill="#3a414a"/><path d="M833.8 408l-2.93 14.7-11.27-9.9z" stroke="#3a414a" stroke-width="2" fill="#fff"/><path d="M720 946a6 6 0 0 1 6-6h362a6 6 0 0 1 6 6v160a6 6 0 0 1-6 6H726a6 6 0 0 1-6-6z" stroke="#000" stroke-width="5" fill="#fff"/><path d="M720 982.9h374m-374 64.38h374" stroke="#000" stroke-width="5" fill="none"/><use xlink:href="#j" transform="matrix(1,0,0,1,728,948) translate(65.046875 21.58376736111111)"/><use xlink:href="#k" transform="matrix(1,0,0,1,728,948) translate(186.15147569444446 21.58376736111111)"/><g><use xlink:href="#b" transform="matrix(1,0,0,1,732,1055.2760416666667) translate(0 32.583767361111114)"/><use xlink:href="#e" transform="matrix(1,0,0,1,732,1055.2760416666667) translate(20.95269097222222 32.583767361111114)"/></g><path d="M832.6 936.73L691 766.78" stroke="#3a414a" stroke-width="2" fill="none"/><path d="M834.52 937.5h-2.54l-.13-.16 1.5-1.25z" stroke="#3a414a" stroke-width=".05" fill="#3a414a"/><path d="M682.03 756.04l14.08 5.17-11.5 9.62z" stroke="#3a414a" stroke-width="2" fill="#fff"/><path d="M981.4 936.73L1123 766.78" stroke="#3a414a" stroke-width="2" fill="none"/><path d="M982.16 937.34l-.14.16h-2.54l1.18-1.4z" stroke="#3a414a" stroke-width=".05" fill="#3a414a"/><path d="M1131.97 756.04l-2.55 14.78-11.53-9.6z" stroke="#3a414a" stroke-width="2" fill="#fff"/><defs><path fill="#008a0e" d="M135 0v-1490h581c339 0 533 210 533 503 0 295-197 500-540 500H440V0H135zm305-733h220c186 0 274-104 274-254s-88-251-275-251H440v505" id="l"/><path fill="#008a0e" d="M633 22C291 22 81-200 81-553c0-345 210-579 537-579 292 0 525 185 525 567v84H378c7 183 109 277 260 277 105 0 184-46 216-132l272 51C1071-99 893 22 633 22zM380-669h474c-15-146-94-237-233-237-143 0-229 99-241 237" id="m"/><path fill="#008a0e" d="M128 0v-1118h290v195h12c54-169 184-238 367-200v268c-27-8-86-15-130-15-138 0-239 95-239 234V0H128" id="n"/><path fill="#008a0e" d="M572 22C302 22 117-98 78-306l279-48c29 105 101 156 224 156 114 0 185-48 185-115 0-118-228-130-337-155-215-49-322-150-322-317 0-215 187-347 470-347 265 0 424 116 466 298l-266 47c-24-76-87-130-196-130-98 0-174 46-174 113 0 56 38 95 144 117l201 40c216 44 320 143 320 302 0 220-207 367-500 367" id="o"/><path fill="#008a0e" d="M628 22C291 22 81-210 81-554c0-346 210-578 547-578 336 0 547 232 547 578 0 344-211 576-547 576zm0-236c160 0 242-146 242-341 0-197-82-341-242-341S387-753 387-555c0 195 81 341 241 341" id="p"/><path fill="#008a0e" d="M428-647V0H128v-1118h283l4 231c63-156 176-245 348-245 232 0 384 159 384 421V0H847v-659c0-139-76-222-202-222-128 0-217 86-217 234" id="q"/><path fill="#008a0e" d="M440 22C227 22 68-92 68-313c0-250 202-322 422-343 195-21 271-24 271-105 0-95-63-149-175-149-116 0-187 57-211 129l-275-46c57-194 237-305 487-305 240 0 474 108 474 379V0H777v-155h-10C713-51 605 22 440 22zm85-211c140 0 238-93 238-211v-121c-37 26-156 42-222 51-111 16-185 59-185 149 0 87 70 132 169 132" id="r"/><g id="a"><use transform="matrix(0.010850694444444444,0,0,0.010850694444444444,0,0)" xlink:href="#l"/><use transform="matrix(0.010850694444444444,0,0,0.010850694444444444,14.214409722222221,0)" xlink:href="#m"/><use transform="matrix(0.010850694444444444,0,0,0.010850694444444444,27.452256944444443,0)" xlink:href="#n"/><use transform="matrix(0.010850694444444444,0,0,0.010850694444444444,36.50173611111111,0)" xlink:href="#o"/><use transform="matrix(0.010850694444444444,0,0,0.010850694444444444,48.947482638888886,0)" xlink:href="#p"/><use transform="matrix(0.010850694444444444,0,0,0.010850694444444444,62.57595486111111,0)" xlink:href="#q"/><use transform="matrix(0.010850694444444444,0,0,0.010850694444444444,76.41059027777777,0)" xlink:href="#r"/></g><path fill="#008a0e" d="M593-100v-404H195v-159h398v-403h169v403h398v159H762v404H593" id="s"/><use transform="matrix(0.010850694444444444,0,0,0.010850694444444444,0,0)" xlink:href="#s" id="b"/><path fill="#008a0e" d="M338-670V0H158v-1118h173l1 207c72-158 192-221 342-221 226 0 378 139 378 422V0H872v-695c0-172-96-275-252-275-161 0-282 109-282 300" id="t"/><path fill="#008a0e" d="M613 24c-304 0-509-231-509-576 0-350 205-580 509-580 305 0 511 230 511 580 0 345-206 576-511 576zm0-161c226 0 329-195 329-415 0-222-103-419-329-419-223 0-326 196-326 419 0 220 103 415 326 415" id="u"/><path fill="#008a0e" d="M158 0v-1118h175l1 205c55-151 181-225 313-225 147 0 245 90 285 228 53-141 190-228 352-228 194 0 352 125 352 384V0h-181v-749c0-161-105-225-225-225-151 0-243 103-243 244V0H807v-767c0-124-93-207-219-207-131 0-250 92-250 270V0H158" id="v"/><path fill="#008a0e" d="M677 24c-213 0-288-135-325-197h-20V0H158v-1490h180v551h14c37-59 106-193 324-193 279 0 474 222 474 576 0 356-194 580-473 580zm-27-161c209 0 317-186 317-421 0-232-105-413-317-413-206 0-314 166-314 413 0 249 111 421 314 421" id="w"/><path fill="#008a0e" d="M158 0v-1118h174v172h12c41-113 157-188 290-188 26 0 70 2 91 3v181c-11-2-60-10-108-10-161 0-279 109-279 260V0H158" id="x"/><path fill="#008a0e" d="M628 24c-324 0-524-230-524-574 0-343 198-582 503-582 237 0 487 146 487 559v75H286c9 234 145 362 343 362 132 0 231-58 273-172l174 48C1024-91 857 24 628 24zM287-650h624c-17-190-120-322-304-322-192 0-309 151-320 322" id="y"/><path fill="#008a0e" d="M295 13c-75 0-135-60-135-135s60-135 135-135 135 60 135 135S370 13 295 13zm0-809c-75 0-135-60-135-135s60-135 135-135 135 60 135 135-60 135-135 135" id="z"/><path fill="#008a0e" d="M538 24C308 24 148-78 108-271l171-41c32 123 123 178 257 178 156 0 256-77 256-169 0-77-54-128-164-154l-186-44c-203-48-300-148-300-305 0-192 176-326 414-326 230 0 351 112 402 269l-163 42c-31-80-94-158-238-158-133 0-233 69-233 162 0 83 57 129 188 160l169 40c203 48 298 149 298 302 0 196-179 339-441 339" id="A"/><path fill="#008a0e" d="M598-1118v154H368v674c0 100 37 144 132 144 23 0 62-6 92-12L629-6c-37 13-88 20-134 20-193 0-307-107-307-290v-688H20v-154h168v-266h180v266h230" id="B"/><path fill="#008a0e" d="M158 0v-1118h180V0H158zm91-1301c-68 0-125-53-125-119s57-119 125-119c69 0 126 53 126 119s-57 119-126 119" id="C"/><path fill="#008a0e" d="M611 442c-248 0-391-105-460-228l146-94c47 65 117 165 314 165 178 0 307-82 307-266v-224h-17C863-141 792-18 576-18c-268 0-472-195-472-546 0-346 197-568 476-568 216 0 288 133 326 193h17v-179h175V29c0 289-215 413-487 413zm-5-620c203 0 314-146 314-390 0-237-108-403-314-403-213 0-319 180-319 403 0 230 109 390 319 390" id="D"/><g id="c"><use transform="matrix(0.010850694444444444,0,0,0.010850694444444444,0,0)" xlink:href="#t"/><use transform="matrix(0.010850694444444444,0,0,0.010850694444444444,13.129340277777777,0)" xlink:href="#u"/><use transform="matrix(0.010850694444444444,0,0,0.010850694444444444,26.453993055555554,0)" xlink:href="#v"/><use transform="matrix(0.010850694444444444,0,0,0.010850694444444444,45.920138888888886,0)" xlink:href="#w"/><use transform="matrix(0.010850694444444444,0,0,0.010850694444444444,59.52690972222221,0)" xlink:href="#x"/><use transform="matrix(0.010850694444444444,0,0,0.010850694444444444,67.52387152777777,0)" xlink:href="#y"/><use transform="matrix(0.010850694444444444,0,0,0.010850694444444444,80.47960069444444,0)" xlink:href="#z"/><use transform="matrix(0.010850694444444444,0,0,0.010850694444444444,86.88151041666667,0)" xlink:href="#A"/><use transform="matrix(0.010850694444444444,0,0,0.010850694444444444,98.61111111111111,0)" xlink:href="#B"/><use transform="matrix(0.010850694444444444,0,0,0.010850694444444444,105.88107638888889,0)" xlink:href="#x"/><use transform="matrix(0.010850694444444444,0,0,0.010850694444444444,114.5941840277778,0)" xlink:href="#C"/><use transform="matrix(0.010850694444444444,0,0,0.010850694444444444,119.97612847222224,0)" xlink:href="#t"/><use transform="matrix(0.010850694444444444,0,0,0.010850694444444444,133.10546875,0)" xlink:href="#D"/></g><path fill="#008a0e" d="M471 26C259 26 90-98 90-318c0-256 228-303 435-329 202-27 287-16 287-108 0-139-79-219-234-219-161 0-248 86-283 164l-173-57c86-203 278-265 451-265 150 0 419 46 419 395V0H815v-152h-12C765-73 660 26 471 26zm31-159c199 0 310-134 310-271v-155c-30 35-226 55-295 64-131 17-246 59-246 186 0 116 97 176 231 176" id="E"/><path fill="#008a0e" d="M158 418v-1536h174v179h20c37-59 106-193 324-193 279 0 474 222 474 576 0 356-194 580-473 580-213 0-288-135-325-197h-14v591H158zm492-555c209 0 317-186 317-421 0-232-105-413-317-413-206 0-314 166-314 413 0 249 111 421 314 421" id="F"/><path fill="#008a0e" d="M338-1490V0H158v-1490h180" id="G"/><path fill="#008a0e" d="M577 24c-279 0-473-224-473-580 0-354 195-576 474-576 218 0 287 134 324 193h14v-551h180V0H922v-173h-20C865-111 790 24 577 24zm27-161c203 0 314-172 314-421 0-247-108-413-314-413-212 0-317 181-317 413 0 235 108 421 317 421" id="H"/><g id="d"><use transform="matrix(0.010850694444444444,0,0,0.010850694444444444,0,0)" xlink:href="#E"/><use transform="matrix(0.010850694444444444,0,0,0.010850694444444444,12.47829861111111,0)" xlink:href="#F"/><use transform="matrix(0.010850694444444444,0,0,0.010850694444444444,26.085069444444443,0)" xlink:href="#y"/><use transform="matrix(0.010850694444444444,0,0,0.010850694444444444,39.04079861111111,0)" xlink:href="#G"/><use transform="matrix(0.010850694444444444,0,0,0.010850694444444444,44.42274305555555,0)" xlink:href="#G"/><use transform="matrix(0.010850694444444444,0,0,0.010850694444444444,49.804687499999986,0)" xlink:href="#C"/><use transform="matrix(0.010850694444444444,0,0,0.010850694444444444,55.186631944444436,0)" xlink:href="#H"/><use transform="matrix(0.010850694444444444,0,0,0.010850694444444444,68.79340277777777,0)" xlink:href="#u"/><use transform="matrix(0.010850694444444444,0,0,0.010850694444444444,82.11805555555554,0)" xlink:href="#z"/><use transform="matrix(0.010850694444444444,0,0,0.010850694444444444,88.51996527777777,0)" xlink:href="#A"/><use transform="matrix(0.010850694444444444,0,0,0.010850694444444444,100.24956597222221,0)" xlink:href="#B"/><use transform="matrix(0.010850694444444444,0,0,0.010850694444444444,107.51953124999997,0)" xlink:href="#x"/><use transform="matrix(0.010850694444444444,0,0,0.010850694444444444,116.23263888888889,0)" xlink:href="#C"/><use transform="matrix(0.010850694444444444,0,0,0.010850694444444444,121.61458333333333,0)" xlink:href="#t"/><use transform="matrix(0.010850694444444444,0,0,0.010850694444444444,134.74392361111111,0)" xlink:href="#D"/></g><path fill="#008a0e" d="M537 14c-226 0-379-139-379-422v-710h180v695c0 172 97 275 253 275 160 0 281-109 281-300v-670h181V0H879v-209C806-46 684 14 537 14" id="I"/><path fill="#008a0e" d="M218-607c0-325 108-727 258-974h175c-155 315-250 682-250 974 0 265 78 531 250 886H476C306-10 218-315 218-607" id="J"/><path fill="#008a0e" d="M96 279C273-86 346-350 346-607c0-292-95-659-250-974h175c150 246 258 650 258 974 0 297-91 602-258 886H96" id="K"/><path fill="#008a0e" d="M481 0L54-1118h197c107 314 236 620 325 951 87-331 217-637 324-951h197L670 0H481" id="L"/><g id="e"><use transform="matrix(0.010850694444444444,0,0,0.010850694444444444,0,0)" xlink:href="#A"/><use transform="matrix(0.010850694444444444,0,0,0.010850694444444444,11.729600694444445,0)" xlink:href="#E"/><use transform="matrix(0.010850694444444444,0,0,0.010850694444444444,24.207899305555554,0)" xlink:href="#G"/><use transform="matrix(0.010850694444444444,0,0,0.010850694444444444,29.58984375,0)" xlink:href="#I"/><use transform="matrix(0.010850694444444444,0,0,0.010850694444444444,42.73003472222222,0)" xlink:href="#H"/><use transform="matrix(0.010850694444444444,0,0,0.010850694444444444,56.33680555555555,0)" xlink:href="#E"/><use transform="matrix(0.010850694444444444,0,0,0.010850694444444444,68.81510416666667,0)" xlink:href="#J"/><use transform="matrix(0.010850694444444444,0,0,0.010850694444444444,76.92057291666667,0)" xlink:href="#F"/><use transform="matrix(0.010850694444444444,0,0,0.010850694444444444,90.74435763888889,0)" xlink:href="#E"/><use transform="matrix(0.010850694444444444,0,0,0.010850694444444444,103.22265625,0)" xlink:href="#x"/><use transform="matrix(0.010850694444444444,0,0,0.010850694444444444,111.58854166666666,0)" xlink:href="#E"/><use transform="matrix(0.010850694444444444,0,0,0.010850694444444444,124.0668402777778,0)" xlink:href="#v"/><use transform="matrix(0.010850694444444444,0,0,0.010850694444444444,143.53298611111111,0)" xlink:href="#A"/><use transform="matrix(0.010850694444444444,0,0,0.010850694444444444,155.26258680555557,0)" xlink:href="#K"/><use transform="matrix(0.010850694444444444,0,0,0.010850694444444444,163.36805555555557,0)" xlink:href="#z"/><use transform="matrix(0.010850694444444444,0,0,0.010850694444444444,169.7699652777778,0)" xlink:href="#L"/><use transform="matrix(0.010850694444444444,0,0,0.010850694444444444,181.8250868055556,0)" xlink:href="#u"/><use transform="matrix(0.010850694444444444,0,0,0.010850694444444444,195.14973958333331,0)" xlink:href="#C"/><use transform="matrix(0.010850694444444444,0,0,0.010850694444444444,200.5316840277778,0)" xlink:href="#H"/></g><path fill="#008a0e" d="M135 0v-1490h997v253H440v360h640v249H440v375h694V0H135" id="M"/><path fill="#008a0e" d="M128 0v-1118h278l12 217c60-163 185-234 319-234 143 0 236 81 288 251 63-172 205-251 359-251 205 0 357 138 357 381V0h-301v-697c0-126-76-187-177-187-114 0-184 79-184 196V0H789v-705c0-109-72-179-174-179-106 0-187 74-187 208V0H128" id="N"/><path fill="#008a0e" d="M128 418v-1536h295v188h14c41-89 129-202 319-202 248 0 453 193 453 575 0 372-197 576-455 576-183 0-275-108-317-198h-9v597H128zm534-640c156 0 240-139 240-336 0-196-83-334-240-334-154 0-241 131-241 334 0 202 88 336 241 336" id="O"/><path fill="#008a0e" d="M428-1490V0H128v-1490h300" id="P"/><path fill="#008a0e" d="M537 19C279 19 81-185 81-557c0-382 206-575 454-575 190 0 278 113 318 202h10v-560h300V0H868v-179h-15C812-89 719 19 537 19zm92-241c153 0 240-134 240-336 0-203-86-334-240-334-158 0-240 138-240 334 0 197 84 336 240 336" id="Q"/><g id="f"><use transform="matrix(0.010850694444444444,0,0,0.010850694444444444,0,0)" xlink:href="#M"/><use transform="matrix(0.010850694444444444,0,0,0.010850694444444444,13.49826388888889,0)" xlink:href="#N"/><use transform="matrix(0.010850694444444444,0,0,0.010850694444444444,33.77821180555556,0)" xlink:href="#O"/><use transform="matrix(0.010850694444444444,0,0,0.010850694444444444,47.78645833333333,0)" xlink:href="#P"/><use transform="matrix(0.010850694444444444,0,0,0.010850694444444444,53.80859375,0)" xlink:href="#m"/><use transform="matrix(0.010850694444444444,0,0,0.010850694444444444,67.26345486111111,0)" xlink:href="#r"/><use transform="matrix(0.010850694444444444,0,0,0.010850694444444444,80.16493055555556,0)" xlink:href="#Q"/><use transform="matrix(0.010850694444444444,0,0,0.010850694444444444,94.17317708333333,0)" xlink:href="#p"/></g><g id="g"><use transform="matrix(0.010850694444444444,0,0,0.010850694444444444,0,0)" xlink:href="#y"/><use transform="matrix(0.010850694444444444,0,0,0.010850694444444444,12.955729166666666,0)" xlink:href="#v"/><use transform="matrix(0.010850694444444444,0,0,0.010850694444444444,32.421875,0)" xlink:href="#F"/><use transform="matrix(0.010850694444444444,0,0,0.010850694444444444,46.02864583333333,0)" xlink:href="#G"/><use transform="matrix(0.010850694444444444,0,0,0.010850694444444444,51.41059027777778,0)" xlink:href="#y"/><use transform="matrix(0.010850694444444444,0,0,0.010850694444444444,64.36631944444444,0)" xlink:href="#u"/><use transform="matrix(0.010850694444444444,0,0,0.010850694444444444,77.69097222222221,0)" xlink:href="#z"/><use transform="matrix(0.010850694444444444,0,0,0.010850694444444444,84.09288194444444,0)" xlink:href="#A"/><use transform="matrix(0.010850694444444444,0,0,0.010850694444444444,95.82248263888889,0)" xlink:href="#B"/><use transform="matrix(0.010850694444444444,0,0,0.010850694444444444,103.09244791666666,0)" xlink:href="#x"/><use transform="matrix(0.010850694444444444,0,0,0.010850694444444444,111.80555555555556,0)" xlink:href="#C"/><use transform="matrix(0.010850694444444444,0,0,0.010850694444444444,117.1875,0)" xlink:href="#t"/><use transform="matrix(0.010850694444444444,0,0,0.010850694444444444,130.31684027777777,0)" xlink:href="#D"/></g><path fill="#008a0e" d="M683-1118v229H474v562c0 71 29 104 102 104 23 0 73-7 95-13l43 225C647 9 580 16 520 16 296 16 174-96 174-301v-588H20v-229h154v-266h300v266h209" id="R"/><path fill="#008a0e" d="M513 14c-232 0-385-159-385-421v-711h300v659c0 139 76 222 202 222 127 0 217-86 217-234v-647h301V0H864l-4-232C797-74 683 14 513 14" id="S"/><path fill="#008a0e" d="M128 0v-1118h300V0H128zm150-1264c-91 0-165-68-165-154 0-85 74-154 165-154 90 0 165 69 165 154 0 86-75 154-165 154" id="T"/><g id="h"><use transform="matrix(0.010850694444444444,0,0,0.010850694444444444,0,0)" xlink:href="#M"/><use transform="matrix(0.010850694444444444,0,0,0.010850694444444444,13.49826388888889,0)" xlink:href="#o"/><use transform="matrix(0.010850694444444444,0,0,0.010850694444444444,25.944010416666664,0)" xlink:href="#R"/><use transform="matrix(0.010850694444444444,0,0,0.010850694444444444,34.08203125,0)" xlink:href="#S"/><use transform="matrix(0.010850694444444444,0,0,0.010850694444444444,47.916666666666664,0)" xlink:href="#Q"/><use transform="matrix(0.010850694444444444,0,0,0.010850694444444444,61.92491319444444,0)" xlink:href="#T"/><use transform="matrix(0.010850694444444444,0,0,0.010850694444444444,67.94704861111111,0)" xlink:href="#r"/><use transform="matrix(0.010850694444444444,0,0,0.010850694444444444,80.84852430555556,0)" xlink:href="#q"/><use transform="matrix(0.010850694444444444,0,0,0.010850694444444444,94.68315972222221,0)" xlink:href="#R"/><use transform="matrix(0.010850694444444444,0,0,0.010850694444444444,102.60416666666666,0)" xlink:href="#m"/></g><path fill="#008a0e" d="M613 24c-304 0-509-231-509-576 0-350 205-580 509-580 216 0 392 114 453 309l-173 49c-33-115-133-197-280-197-223 0-326 196-326 419 0 220 103 415 326 415 150 0 252-85 285-206l172 49C1010-95 832 24 613 24" id="U"/><g id="i"><use transform="matrix(0.010850694444444444,0,0,0.010850694444444444,0,0)" xlink:href="#y"/><use transform="matrix(0.010850694444444444,0,0,0.010850694444444444,12.955729166666666,0)" xlink:href="#A"/><use transform="matrix(0.010850694444444444,0,0,0.010850694444444444,24.68532986111111,0)" xlink:href="#F"/><use transform="matrix(0.010850694444444444,0,0,0.010850694444444444,38.29210069444444,0)" xlink:href="#y"/><use transform="matrix(0.010850694444444444,0,0,0.010850694444444444,51.24782986111111,0)" xlink:href="#U"/><use transform="matrix(0.010850694444444444,0,0,0.010850694444444444,63.94314236111111,0)" xlink:href="#C"/><use transform="matrix(0.010850694444444444,0,0,0.010850694444444444,69.32508680555556,0)" xlink:href="#E"/><use transform="matrix(0.010850694444444444,0,0,0.010850694444444444,81.80338541666667,0)" xlink:href="#G"/><use transform="matrix(0.010850694444444444,0,0,0.010850694444444444,87.18532986111111,0)" xlink:href="#C"/><use transform="matrix(0.010850694444444444,0,0,0.010850694444444444,92.56727430555556,0)" xlink:href="#H"/><use transform="matrix(0.010850694444444444,0,0,0.010850694444444444,106.17404513888889,0)" xlink:href="#E"/><use transform="matrix(0.010850694444444444,0,0,0.010850694444444444,118.65234375,0)" xlink:href="#H"/><use transform="matrix(0.010850694444444444,0,0,0.010850694444444444,132.25911458333334,0)" xlink:href="#z"/><use transform="matrix(0.010850694444444444,0,0,0.010850694444444444,138.66102430555557,0)" xlink:href="#A"/><use transform="matrix(0.010850694444444444,0,0,0.010850694444444444,150.39062500000003,0)" xlink:href="#B"/><use transform="matrix(0.010850694444444444,0,0,0.010850694444444444,157.6605902777778,0)" xlink:href="#x"/><use transform="matrix(0.010850694444444444,0,0,0.010850694444444444,166.37369791666669,0)" xlink:href="#C"/><use transform="matrix(0.010850694444444444,0,0,0.010850694444444444,171.75564236111114,0)" xlink:href="#t"/><use transform="matrix(0.010850694444444444,0,0,0.010850694444444444,184.8849826388889,0)" xlink:href="#D"/></g><g id="j"><use transform="matrix(0.010850694444444444,0,0,0.010850694444444444,0,0)" xlink:href="#M"/><use transform="matrix(0.010850694444444444,0,0,0.010850694444444444,13.49826388888889,0)" xlink:href="#o"/><use transform="matrix(0.010850694444444444,0,0,0.010850694444444444,25.944010416666664,0)" xlink:href="#R"/><use transform="matrix(0.010850694444444444,0,0,0.010850694444444444,34.08203125,0)" xlink:href="#S"/><use transform="matrix(0.010850694444444444,0,0,0.010850694444444444,47.916666666666664,0)" xlink:href="#Q"/><use transform="matrix(0.010850694444444444,0,0,0.010850694444444444,61.92491319444444,0)" xlink:href="#T"/><use transform="matrix(0.010850694444444444,0,0,0.010850694444444444,67.94704861111111,0)" xlink:href="#r"/><use transform="matrix(0.010850694444444444,0,0,0.010850694444444444,80.84852430555556,0)" xlink:href="#q"/><use transform="matrix(0.010850694444444444,0,0,0.010850694444444444,94.68315972222221,0)" xlink:href="#R"/><use transform="matrix(0.010850694444444444,0,0,0.010850694444444444,102.60416666666666,0)" xlink:href="#m"/></g><g id="k"><use transform="matrix(0.010850694444444444,0,0,0.010850694444444444,0,0)" xlink:href="#M"/><use transform="matrix(0.010850694444444444,0,0,0.010850694444444444,13.49826388888889,0)" xlink:href="#N"/><use transform="matrix(0.010850694444444444,0,0,0.010850694444444444,33.77821180555556,0)" xlink:href="#O"/><use transform="matrix(0.010850694444444444,0,0,0.010850694444444444,47.78645833333333,0)" xlink:href="#P"/><use transform="matrix(0.010850694444444444,0,0,0.010850694444444444,53.80859375,0)" xlink:href="#m"/><use transform="matrix(0.010850694444444444,0,0,0.010850694444444444,67.26345486111111,0)" xlink:href="#r"/><use transform="matrix(0.010850694444444444,0,0,0.010850694444444444,80.16493055555556,0)" xlink:href="#Q"/><use transform="matrix(0.010850694444444444,0,0,0.010850694444444444,94.17317708333333,0)" xlink:href="#p"/></g></defs></g></svg>